<?xml version="1.0" standalone="no"?>
<!DOCTYPE svg PUBLIC "-//W3C//DTD SVG 20010904//EN"
 "http://www.w3.org/TR/2001/REC-SVG-20010904/DTD/svg10.dtd">
<svg version="1.0" xmlns="http://www.w3.org/2000/svg"
 width="900.000000pt" height="438.000000pt" viewBox="0 0 900.000000 438.000000"
 preserveAspectRatio="xMidYMid meet">
<metadata>
Created by potrace 1.10, written by Peter Selinger 2001-2011
</metadata>
<g transform="translate(0.000000,438.000000) scale(0.100000,-0.100000)"
fill="#052e66" stroke="none">
<path d="M1214 3609 c-85 -14 -213 -59 -301 -104 -315 -164 -563 -497 -614
-826 -7 -43 -9 -244 -7 -551 l4 -483 32 -95 c68 -198 163 -350 310 -491 151
-146 288 -228 477 -284 78 -24 114 -28 266 -32 247 -8 378 15 554 97 267 125
507 397 604 688 56 168 56 172 56 652 0 454 -3 496 -41 605 -8 23 -14 46 -14
54 0 23 -93 204 -144 280 -28 42 -94 119 -146 172 -165 167 -366 276 -580 315
-83 15 -373 17 -456 3z m401 -218 c371 -76 634 -329 738 -706 21 -77 22 -98
22 -505 0 -383 -2 -432 -19 -495 -90 -339 -316 -585 -631 -688 -242 -79 -480
-59 -711 58 -217 111 -387 306 -464 535 -47 140 -50 174 -50 590 0 416 3 450
50 590 77 229 247 424 464 535 194 98 400 128 601 86z"/>
<path d="M1387 3073 c-4 -3 -7 -33 -7 -65 0 -88 -8 -98 -83 -98 -36 0 -68 -5
-75 -12 -16 -16 -16 -90 0 -106 7 -7 40 -12 79 -12 77 0 79 -2 79 -101 0 -61
8 -69 72 -69 36 0 48 25 48 98 0 70 3 72 90 72 67 0 80 12 80 74 0 44 -20 56
-92 56 -30 0 -59 5 -66 12 -7 7 -12 39 -12 73 0 34 -5 66 -12 73 -13 13 -90
17 -101 5z"/>
<path d="M1365 2268 c-52 -32 -341 -199 -431 -249 -127 -71 -258 -155 -256
-164 1 -7 266 -11 762 -13 842 -2 814 -5 703 60 -32 18 -64 36 -73 41 -8 4
-28 16 -45 27 -16 10 -41 25 -55 33 -14 7 -117 67 -230 132 -113 65 -217 125
-232 132 -15 8 -30 18 -33 24 -11 17 -60 7 -110 -23z"/>
<path d="M687 1663 c-13 -12 -7 -40 18 -97 47 -106 -30 -96 733 -96 520 0 672
3 683 13 34 27 85 146 75 172 -5 13 -105 15 -754 15 -412 0 -752 -3 -755 -7z"/>
<path d="M932 1283 c7 -35 205 -135 308 -155 206 -41 391 -22 559 57 74 35
151 89 151 106 0 5 -208 9 -511 9 -471 0 -510 -1 -507 -17z"/>
<path d="M5965 3224 c-194 -25 -258 -41 -370 -94 -188 -90 -311 -241 -368
-453 -21 -78 -22 -100 -22 -502 0 -476 4 -511 76 -654 119 -239 407 -385 754
-383 195 1 371 50 510 143 118 79 192 181 234 320 24 81 37 245 20 265 -16 19
-371 21 -387 2 -5 -7 -13 -40 -16 -73 -14 -115 -71 -197 -174 -247 -64 -32
-72 -33 -187 -33 -94 0 -131 4 -170 19 -99 38 -182 120 -212 210 -15 43 -18
104 -21 406 -2 252 0 372 9 415 25 122 82 195 195 251 56 27 66 29 185 29 122
0 128 -1 191 -33 113 -57 170 -133 183 -247 4 -33 12 -66 17 -72 16 -20 371
-18 387 1 19 23 3 187 -27 280 -62 189 -211 327 -433 399 -104 34 -298 60
-374 51z"/>
<path d="M3281 3176 c-9 -11 -11 -200 -8 -748 3 -815 0 -772 74 -927 48 -101
160 -214 262 -264 317 -158 770 -125 1018 72 107 86 193 231 232 393 21 84 21
106 19 785 l-3 698 -205 0 -205 0 -5 -680 c-6 -738 -6 -741 -63 -838 -64 -108
-160 -153 -327 -151 -89 1 -113 5 -161 27 -108 48 -172 130 -198 255 -7 36
-11 265 -11 710 0 499 -3 661 -12 670 -19 19 -392 17 -407 -2z"/>
<path d="M7125 3167 c-4 -12 -4 -349 -2 -747 3 -702 4 -727 25 -792 57 -183
159 -312 308 -390 207 -108 536 -132 774 -56 239 76 395 231 467 464 17 55 18
110 18 799 l0 740 -190 2 c-109 2 -196 -1 -205 -7 -13 -8 -15 -96 -16 -682 0
-525 -3 -684 -14 -723 -31 -118 -86 -186 -189 -233 -50 -23 -69 -26 -171 -26
-102 0 -121 3 -171 26 -104 48 -155 110 -191 233 -16 54 -17 123 -18 722 0
364 -3 668 -6 677 -5 14 -33 16 -210 16 l-204 0 -5 -23z"/>
</g>
</svg>
